<svg width="149" height="37" viewBox="0 0 149 37" fill="none" xmlns="http://www.w3.org/2000/svg">
<g id="Logo">
<path id="Union" fill-rule="evenodd" clip-rule="evenodd" d="M129.114 17.2983C129.462 17.3525 130.008 17.7359 130.219 18.0214C131.131 19.254 130.287 20.9545 128.775 21.0253C127.142 20.9404 125.453 20.9912 123.765 21.0419C121.912 21.0976 120.06 21.1533 118.283 21.0295C116.682 20.918 115.967 19.6927 115.813 18.2163C115.93 15.823 115.862 13.3621 115.795 10.9022C115.722 8.2236 115.648 5.54611 115.813 2.95808C115.935 1.03049 116.87 0.210485 118.761 0.0802423C120.798 -0.0604705 122.969 0.0122428 125.11 0.0839624C126.394 0.126953 127.667 0.169586 128.894 0.165681C130.171 0.495977 130.857 1.94323 129.997 3.06332C129.796 3.32589 129.173 3.80727 128.845 3.80727H120.961V8.48454H127.83C129.366 8.48454 130.318 10.3694 129.284 11.5676C129.101 11.7812 128.432 12.2136 128.169 12.2136H120.961V17.2983H129.114ZM146.102 8.48552H139.233H139.231V3.90931L139.332 3.8072H147.184C147.248 3.8072 147.725 3.55714 147.821 3.49671C149.528 2.42351 148.521 0.0739298 146.644 0.0770556C145.146 0.155059 143.6 0.110444 142.055 0.0658495C140.381 0.0175191 138.708 -0.0307859 137.096 0.0770556C134.881 0.225011 134.201 1.23986 134.085 3.36438C133.949 5.83923 134.01 8.37769 134.07 10.9169C134.126 13.2525 134.182 15.5886 134.085 17.8765C134.222 19.5051 134.816 20.9023 136.623 21.0294C138.38 21.1531 140.21 21.0978 142.042 21.0425C143.73 20.9915 145.419 20.9405 147.052 21.0294C148.871 20.9419 149.623 18.6809 148.094 17.6077C148.013 17.5504 147.509 17.2983 147.455 17.2983H139.333L139.232 17.1961V12.3157L139.333 12.2136H146.508C146.825 12.2136 147.533 11.6655 147.722 11.3957C148.591 10.1589 147.54 8.48552 146.102 8.48552ZM107.422 10.0443C107.305 10.1389 107.422 10.1596 107.508 10.1747L107.525 10.1777C110.681 10.7424 112.619 13.1702 111.938 16.4314C111.283 19.5687 108.131 20.8826 105.225 21.0285C102.963 21.1421 99.8935 21.166 97.6427 21.0254C95.6358 20.8993 94.8969 20.1762 94.6956 18.1475V2.41525C94.8036 0.713765 96.3819 0.174039 97.8461 0.0802644C99.5146 -0.027 101.346 0.0489315 103.057 0.119866C103.307 0.130239 103.554 0.140504 103.798 0.150074L104.095 0.161569C105.701 0.22288 107.293 0.283681 108.79 0.980501C112.924 2.90392 111.858 9.38271 107.421 10.0454L107.422 10.0443ZM99.7741 9.02741C100.065 9.0218 100.391 9.02687 100.737 9.03227C102.962 9.06694 106.035 9.11482 106.207 6.42048C106.41 3.23833 103.449 3.28908 101.019 3.33072C100.58 3.33826 100.157 3.3455 99.7741 3.3332V9.02741ZM99.7741 11.6708V17.7714C100.295 17.7447 100.865 17.7563 101.449 17.7681C104.129 17.8224 107.09 17.8823 106.816 14.2778C106.611 11.5827 103.301 11.6339 100.959 11.6701C100.522 11.6769 100.118 11.6831 99.7741 11.6708ZM65.3888 19.1655C65.6452 21.6338 69.2989 21.6099 69.5884 19.1624V5.29933L70.0263 6.25062C70.8246 7.88411 71.484 9.72353 72.1463 11.5709C72.9753 13.8832 73.8087 16.2079 74.9243 18.1569C76.5535 21.0045 79.2878 20.4992 80.6576 17.7755L85.8326 5.2316V19.1624C85.8326 19.3364 86.0723 19.9344 86.1823 20.1001C87.2252 21.6661 89.6981 21.1275 90.0229 19.2926L90.028 3.97815C89.8382 2.37044 89.4656 0.746049 87.7264 0.250085C84.6071 -0.640774 83.2819 1.85572 82.1654 4.23655C81.399 5.87132 80.7274 7.57438 80.0563 9.27614C79.3779 10.9964 78.7 12.7153 77.9253 14.3611C77.9227 14.3666 77.9197 14.3734 77.9164 14.3813C77.9126 14.3902 77.9085 14.4005 77.9039 14.4119L77.8987 14.425C77.8494 14.5481 77.7623 14.766 77.6773 14.7216C76.8732 12.9713 76.1581 11.1794 75.4431 9.38773C74.762 7.68108 74.081 5.97458 73.3231 4.30428L73.2461 4.1343C72.2752 1.98969 71.3125 -0.136987 68.5404 0.0802488C66.0872 0.271966 65.4957 2.24749 65.3888 4.38138C65.2625 6.9073 65.3191 9.48738 65.3756 12.0682V12.0683V12.0684V12.0684V12.0685V12.0686V12.0687C65.4278 14.4476 65.4799 16.8272 65.3888 19.1655ZM0.0115653 4.28233C0.228445 2.25993 2.03508 0.504255 4.10945 0.618868C6.3156 0.740775 7.56915 2.75276 8.00706 4.7137L10.7051 17.5692H2.98977L0.0115653 5.36699C0.0243999 5.20095 0.0168047 5.02477 0.00922214 4.84888C0.00086497 4.65502 -0.00747689 4.46151 0.0115653 4.28233ZM6.12259 29.5828C6.93615 32.4283 8.25818 35.2259 11.5851 35.5333H11.5871C11.9981 35.5708 12.7317 35.5697 13.1437 35.5333C17.3796 35.1613 18.5159 31.5864 19.4861 28.0907C19.9349 26.4746 20.3343 24.8426 20.7338 23.2106L20.7338 23.2105C21.101 21.7101 21.4683 20.2098 21.8739 18.7216H15.2751L12.9735 27.3988L11.1119 18.7216H3.464C3.86115 20.2462 4.2172 21.7951 4.57358 23.3455L4.57359 23.3455C5.05525 25.4409 5.5375 27.5389 6.12259 29.5828ZM29.8932 28.8221C30.8489 31.9334 32.172 35.1905 35.8828 35.5333H35.8839C36.2741 35.5697 36.9828 35.5697 37.373 35.5333C41.1616 35.1832 42.4359 31.6468 43.3097 28.4981C43.8092 26.6976 44.2318 24.8725 44.6544 23.0479L44.6544 23.0478L44.6544 23.0477L44.6544 23.0477L44.6545 23.0476L44.6545 23.0475L44.6545 23.0474L44.6545 23.0473L44.6546 23.0472C44.9895 21.6009 45.3244 20.1548 45.6974 18.7216H38.2862L36.3913 27.3988L34.0222 18.7216H27.2876C27.6455 20.0489 27.9707 21.3964 28.2964 22.7459L28.2964 22.7459L28.2964 22.7459L28.2964 22.746L28.2964 22.746L28.2965 22.746L28.2965 22.746L28.2965 22.7461L28.2965 22.7461L28.2965 22.7462C28.7894 24.7886 29.2834 26.8352 29.8932 28.8221ZM26.8144 17.5692H33.6497V17.5681C33.1281 15.859 32.687 14.1214 32.246 12.3842L32.246 12.3841L32.2459 12.3838C31.8 10.6273 31.3541 8.87106 30.8251 7.14455C29.9057 4.14272 28.5806 0.833514 24.9559 0.617832C20.9856 0.382353 19.5225 3.2977 18.5232 6.58711C17.9619 8.43555 17.5014 10.3299 17.0409 12.2245L17.0409 12.2246L17.0409 12.2246C16.6047 14.0188 16.1685 15.8132 15.6467 17.5692H22.3471L24.5138 8.89188L26.8144 17.5692ZM46.1706 17.5692H38.5902L41.4812 3.8229C43.0803 -0.921058 49.5981 -0.341738 49.1478 5.06177L46.1706 17.5703V17.5692ZM60.6569 3.02581C60.5511 1.35454 59.4781 -0.0989696 57.6611 0.0989992H57.6601C56.4086 0.235493 55.5473 1.23055 55.3117 2.42357L55.3034 18.5549C55.8991 22.1558 60.6798 21.5974 60.6569 18.0131C60.5416 15.6612 60.608 13.2424 60.6743 10.8244C60.7465 8.19482 60.8186 5.5662 60.6569 3.02581Z" fill="#FEF9F3"/>
</g>
</svg>
